<?xml version="1.0" encoding="utf-8"?>
<!-- Generator: Adobe Illustrator 17.0.0, SVG Export Plug-In . SVG Version: 6.00 Build 0)  -->
<!DOCTYPE svg PUBLIC "-//W3C//DTD SVG 1.1//EN" "http://www.w3.org/Graphics/SVG/1.1/DTD/svg11.dtd">
<svg version="1.1" id="Layer_1" xmlns="http://www.w3.org/2000/svg" xmlns:xlink="http://www.w3.org/1999/xlink" x="0px" y="0px"
	 width="300px" height="300px" viewBox="0 0 300 300" enable-background="new 0 0 300 300" xml:space="preserve">
<path fill="#F15C27" d="M229.803,41h-9v54.5h-37V41h-16.5v54.5h-37V41h-16.5v54.5h-37V41h-7c-6.627,0-12,5.373-12,12v194
	c0,6.627,5.373,12,12,12h160c6.627,0,12-5.373,12-12V53C241.803,46.373,236.43,41,229.803,41z"/>
<g>
	<path fill="#FFFFFF" d="M103.774,212.369c2.272,1.307,5.682,2.443,9.262,2.443c4.489,0,6.989-2.103,6.989-5.228
		c0-2.898-1.932-4.603-6.819-6.364c-6.308-2.273-10.342-5.626-10.342-11.138c0-6.25,5.228-11.023,13.524-11.023
		c4.148,0,7.216,0.909,9.206,1.932l-1.705,5.626c-1.364-0.739-4.034-1.818-7.614-1.818c-4.432,0-6.364,2.387-6.364,4.603
		c0,2.955,2.216,4.318,7.33,6.308c6.648,2.5,9.888,5.853,9.888,11.364c0,6.138-4.66,11.479-14.547,11.479
		c-4.035,0-8.24-1.137-10.342-2.387L103.774,212.369z"/>
	<path fill="#FFFFFF" d="M133.263,212.369c2.273,1.307,5.683,2.443,9.263,2.443c4.489,0,6.989-2.103,6.989-5.228
		c0-2.898-1.932-4.603-6.819-6.364c-6.308-2.273-10.342-5.626-10.342-11.138c0-6.25,5.228-11.023,13.524-11.023
		c4.148,0,7.216,0.909,9.205,1.932l-1.705,5.626c-1.364-0.739-4.034-1.818-7.614-1.818c-4.432,0-6.364,2.387-6.364,4.603
		c0,2.955,2.216,4.318,7.33,6.308c6.648,2.5,9.888,5.853,9.888,11.364c0,6.138-4.66,11.479-14.547,11.479
		c-4.035,0-8.24-1.137-10.342-2.387L133.263,212.369z"/>
	<path fill="#FFFFFF" d="M162.923,182.196c3.068-0.512,6.989-0.796,11.137-0.796c7.16,0,12.104,1.478,15.626,4.433
		c3.694,3.012,5.967,7.558,5.967,14.092c0,6.819-2.33,11.933-5.967,15.229c-3.807,3.467-9.887,5.229-17.331,5.229
		c-4.091,0-7.16-0.228-9.433-0.512V182.196z M169.912,214.643c0.966,0.17,2.443,0.17,3.864,0.17
		c9.092,0.057,14.49-4.943,14.49-14.66c0.057-8.467-4.83-13.297-13.581-13.297c-2.216,0-3.807,0.171-4.773,0.397V214.643z"/>
</g>
</svg>
